<svg width="414" height="414" viewBox="0 0 414 414" fill="none" xmlns="http://www.w3.org/2000/svg">
<g clip-path="url(#clip0_14_94)">
<circle cx="207" cy="207" r="207" fill="#CAFC01"/>
<path d="M332.805 260.422H262.509C244.166 260.422 229.243 245.499 229.243 227.157V201.464C229.243 189.244 219.297 179.298 207.077 179.298H192.212C188.182 179.298 184.911 182.569 184.911 186.599V227.165C184.911 245.507 169.988 260.431 151.646 260.431H75.136C62.2732 260.431 51.6434 252.017 48.6852 239.492C45.727 226.967 51.4785 214.689 62.982 208.938L117.655 181.597C118.133 181.358 118.52 181.169 118.298 180.229C118.075 179.29 117.655 179.29 117.111 179.29H47.9189V153.333H117.111C129.974 153.333 140.604 161.746 143.562 174.263C146.52 186.788 140.769 199.066 129.266 204.818L74.5924 232.159C74.1144 232.397 73.7272 232.587 73.9495 233.526C74.1719 234.466 74.5924 234.466 75.136 234.466H151.637C155.667 234.466 158.938 231.195 158.938 227.165V186.599C158.946 168.256 173.87 153.333 192.212 153.333H207.077C233.619 153.333 255.208 174.923 255.208 201.464V227.165C255.208 231.195 258.479 234.466 262.509 234.466H332.805C336.835 234.466 340.106 231.195 340.106 227.165C340.106 223.136 336.835 219.864 332.805 219.864H303.075C284.732 219.864 269.81 204.941 269.81 186.599C269.81 168.256 284.732 153.333 303.075 153.333H366.071V179.298H303.075C299.045 179.298 295.774 182.569 295.774 186.599C295.774 190.628 299.045 193.9 303.075 193.9H332.805C351.148 193.9 366.071 208.822 366.071 227.165C366.071 245.507 351.148 260.422 332.805 260.422Z" fill="black"/>
</g>
<defs>
<clipPath id="clip0_14_94">
<rect width="414" height="414" fill="white"/>
</clipPath>
</defs>
</svg>
